<mxfile host="app.diagrams.net" modified="2024-03-31T03:02:14.502Z" agent="Mozilla/5.0 (Windows NT 10.0; Win64; x64) AppleWebKit/537.36 (KHTML, like Gecko) Chrome/123.0.0.0 Safari/537.36" version="24.0.7" etag="l2JQrmjMr5X9Hwuci_zY" type="github">
  <diagram name="페이지-1" id="R9MuEUepll3bOkVZ4fzJ">
    <mxGraphModel>
      <root>
        <mxCell id="0" />
        <mxCell id="1" parent="0" />
      </root>
    </mxGraphModel>
  </diagram>
</mxfile>
